<svg xmlns="http://www.w3.org/2000/svg" xmlns:xlink="http://www.w3.org/1999/xlink" width="500" zoomAndPan="magnify" viewBox="0 0 375 374.999991" height="500" preserveAspectRatio="xMidYMid meet" version="1.0"><defs><clipPath id="32b99a01e0"><path d="M 58.226562 156 L 316.976562 156 L 316.976562 335.3125 L 58.226562 335.3125 Z M 58.226562 156 " clip-rule="nonzero"/></clipPath><clipPath id="634cadecb0"><path d="M 58.226562 97 L 316.976562 97 L 316.976562 280 L 58.226562 280 Z M 58.226562 97 " clip-rule="nonzero"/></clipPath><clipPath id="9b1400f1d0"><path d="M 58.226562 39.8125 L 316.976562 39.8125 L 316.976562 222 L 58.226562 222 Z M 58.226562 39.8125 " clip-rule="nonzero"/></clipPath></defs><rect x="-37.5" width="450" fill="#ffffff" y="-37.499999" height="449.999989" fill-opacity="1"/><rect x="-37.5" width="450" fill="#000000" y="-37.499999" height="449.999989" fill-opacity="1"/><g clip-path="url(#32b99a01e0)"><path fill="#ffffff" d="M 58.539062 335.105469 L 316.355469 335.3125 L 187.703125 156.277344 Z M 58.539062 335.105469 " fill-opacity="1" fill-rule="nonzero"/></g><g clip-path="url(#634cadecb0)"><path fill="#ffffff" d="M 62.316406 274.917969 L 187.703125 101.300781 L 312.472656 275.019531 L 62.316406 274.917969 M 58.230469 274.917969 C 58.230469 275.53125 58.332031 276.144531 58.640625 276.757812 C 59.355469 278.085938 60.785156 279.007812 62.316406 279.007812 L 312.472656 279.109375 C 314.007812 279.109375 315.4375 278.292969 316.152344 276.859375 C 316.457031 276.246094 316.5625 275.632812 316.5625 275.019531 C 316.5625 274.203125 316.253906 273.386719 315.742188 272.671875 L 190.972656 98.953125 C 190.15625 97.929688 188.929688 97.214844 187.703125 97.214844 C 186.375 97.214844 185.148438 97.828125 184.433594 98.953125 L 59.046875 272.464844 C 58.539062 273.183594 58.230469 274 58.230469 274.917969 Z M 58.230469 274.917969 " fill-opacity="1" fill-rule="nonzero"/></g><g clip-path="url(#9b1400f1d0)"><path fill="#ffffff" d="M 62.523438 217.285156 L 187.90625 43.769531 L 312.679688 217.488281 L 62.523438 217.285156 M 58.433594 217.285156 C 58.433594 217.898438 58.539062 218.511719 58.84375 219.125 C 59.558594 220.453125 60.988281 221.371094 62.523438 221.371094 L 312.679688 221.578125 C 314.210938 221.578125 315.640625 220.757812 316.355469 219.328125 C 316.664062 218.714844 316.765625 218.101562 316.765625 217.488281 C 316.765625 216.671875 316.457031 215.855469 315.949219 215.140625 L 191.175781 41.421875 C 190.359375 40.398438 189.132812 39.683594 187.90625 39.683594 C 186.578125 39.683594 185.351562 40.296875 184.636719 41.421875 L 59.253906 214.832031 C 58.742188 215.546875 58.433594 216.46875 58.433594 217.285156 Z M 58.433594 217.285156 " fill-opacity="1" fill-rule="nonzero"/></g></svg>